<svg width="209" height="54" viewBox="0 0 209 54" fill="none" xmlns="http://www.w3.org/2000/svg">
<path fill-rule="evenodd" clip-rule="evenodd" d="M12 0.529297C5.37258 0.529297 0 5.90188 0 12.5293V41.4705C0 48.0979 5.37259 53.4705 12 53.4705H40.9412C47.5686 53.4705 52.9412 48.0979 52.9412 41.4705V12.5293C52.9412 5.90188 47.5686 0.529297 40.9412 0.529297H12ZM37.1245 12.7742C37.1245 11.8592 36.3895 11.1175 35.4829 11.1175H30.4761C29.5695 11.1175 28.8345 11.8592 28.8345 12.7742V14.0167C28.8345 14.9316 28.0995 15.6733 27.1929 15.6733H26.1259C25.2193 15.6733 24.4843 16.415 24.4843 17.33V18.7381C24.4843 19.6531 23.7493 20.3948 22.8427 20.3948H17.8359C16.9292 20.3948 16.1943 21.1365 16.1943 22.0514V23.3768C16.1943 24.2917 16.9292 25.0334 17.8359 25.0334H22.8427C23.7493 25.0334 24.4843 25.7751 24.4843 26.6901V37.2098C24.4843 38.1247 23.7493 38.8664 22.8427 38.8664H17.8359C16.9292 38.8664 16.1943 39.6082 16.1943 40.5231V41.8484C16.1943 42.7634 16.9292 43.5051 17.8359 43.5051H22.8427C23.7493 43.5051 24.4843 42.7634 24.4843 41.8484V40.8544C24.4843 39.9395 25.2193 39.1978 26.1259 39.1978H27.4391C28.3458 39.1978 29.0807 38.4561 29.0807 37.5411V26.6901C29.0807 25.7751 29.8157 25.0334 30.7223 25.0334H35.7292C36.6358 25.0334 37.3708 24.2917 37.3708 23.3768V22.0514C37.3708 21.1365 36.6358 20.3948 35.7292 20.3948H30.7223C29.8157 20.3948 29.0807 19.6531 29.0807 18.7381V17.4128C29.0807 16.4979 29.8157 15.7562 30.7223 15.7562H35.4829C36.3895 15.7562 37.1245 15.0145 37.1245 14.0995V12.7742Z" fill="white"/>
<path fill-rule="evenodd" clip-rule="evenodd" d="M88.3876 14C89.1108 14 89.6972 14.5725 89.6972 15.2788V16.3018C89.6972 17.008 89.1108 17.5806 88.3876 17.5806H84.5898C83.8665 17.5806 83.2802 18.1531 83.2802 18.8593V19.8823C83.2802 20.5886 83.8665 21.1611 84.5898 21.1611H88.584C89.3073 21.1611 89.8936 21.7337 89.8936 22.4399V23.4629C89.8936 24.1692 89.3073 24.7417 88.584 24.7417H84.5898C83.8665 24.7417 83.2802 25.3142 83.2802 26.0205V34.3964C83.2802 35.1027 82.6939 35.6752 81.9706 35.6752H80.923C80.1997 35.6752 79.6134 36.2477 79.6134 36.954V37.7212C79.6134 38.4275 79.0271 39 78.3038 39H74.3096C73.5863 39 73 38.4275 73 37.7212V36.6982C73 35.992 73.5863 35.4194 74.3096 35.4194H78.3038C79.0271 35.4194 79.6134 34.8469 79.6134 34.1407V26.0205C79.6134 25.3142 79.0271 24.7417 78.3038 24.7417H74.3096C73.5863 24.7417 73 24.1692 73 23.4629V22.4399C73 21.7337 73.5863 21.1611 74.3096 21.1611H78.3038C79.0271 21.1611 79.6134 20.5886 79.6134 19.8823V18.7954C79.6134 18.0892 80.1997 17.5166 80.923 17.5166H81.7742C82.4974 17.5166 83.0838 16.9441 83.0838 16.2378V15.2788C83.0838 14.5725 83.6701 14 84.3934 14H88.3876ZM98.6023 16.4297C98.6023 17.1359 99.1886 17.7084 99.9119 17.7084H100.96C101.683 17.7084 102.269 17.1359 102.269 16.4297V15.3427C102.269 14.6365 101.683 14.0639 100.96 14.0639H99.9119C99.1886 14.0639 98.6023 14.6365 98.6023 15.3427V16.4297ZM115.529 14.2558C116.253 14.2558 116.839 14.8283 116.839 15.5345V15.9821C116.839 16.6883 117.425 17.2609 118.149 17.2609H119.065C119.789 17.2609 120.375 17.8334 120.375 18.5396V34.1407C120.375 34.8469 120.961 35.4194 121.685 35.4194H125.024C125.747 35.4194 126.333 35.992 126.333 36.6982V37.7212C126.333 38.4275 125.747 39 125.024 39H111.404C110.681 39 110.095 38.4275 110.095 37.7212V36.6982C110.095 35.992 110.681 35.4194 111.404 35.4194H115.398C116.122 35.4194 116.708 34.8469 116.708 34.1407V19.1151C116.708 18.4088 116.122 17.8363 115.398 17.8363H112.256C111.532 17.8363 110.946 17.2638 110.946 16.5575V15.5345C110.946 14.8283 111.532 14.2558 112.256 14.2558H115.529ZM97.4237 20.9054C98.1469 20.9054 98.7333 21.4779 98.7333 22.1841V23.2072C98.7333 23.9134 99.3196 24.4859 100.043 24.4859H100.96C101.683 24.4859 102.269 25.0585 102.269 25.7647V34.1407C102.269 34.8469 102.855 35.4194 103.579 35.4194H106.918C107.641 35.4194 108.228 35.992 108.228 36.6982V37.7212C108.228 38.4275 107.641 39 106.918 39H93.2985C92.5752 39 91.9889 38.4275 91.9889 37.7212V36.6982C91.9889 35.992 92.5752 35.4194 93.2985 35.4194H97.2927C98.016 35.4194 98.6023 34.8469 98.6023 34.1407V25.7647C98.6023 25.0585 98.016 24.4859 97.2927 24.4859H94.1497C93.4265 24.4859 92.8402 23.9134 92.8402 23.2072V22.1841C92.8402 21.4779 93.4265 20.9054 94.1497 20.9054H97.4237ZM170.99 35.4194C171.714 35.4194 172.3 35.992 172.3 36.6982V37.7212C172.3 38.4275 171.714 39 170.99 39H157.371C156.647 39 156.061 38.4275 156.061 37.7212V36.6982C156.061 35.992 156.647 35.4194 157.371 35.4194H161.365C162.088 35.4194 162.674 34.8469 162.674 34.1407V25.7647C162.674 25.0585 162.088 24.4859 161.365 24.4859H158.156C157.433 24.4859 156.847 23.9134 156.847 23.2072V22.1841C156.847 21.4779 157.433 20.9054 158.156 20.9054H161.43C162.154 20.9054 162.74 21.4779 162.74 22.1841V23.2072C162.74 23.9134 163.326 24.4859 164.049 24.4859H165.032C165.755 24.4859 166.341 25.0585 166.341 25.7647V34.1407C166.341 34.8469 166.928 35.4194 167.651 35.4194H170.99ZM148.531 20.9054C149.254 20.9054 149.84 21.4779 149.84 22.1841V23.2072C149.84 23.9134 150.427 24.4859 151.15 24.4859H152.001C152.725 24.4859 153.311 25.0585 153.311 25.7647V37.7212C153.311 38.4275 152.725 39 152.001 39H150.954C150.23 39 149.644 38.4275 149.644 37.7212V25.7647C149.644 25.0585 149.058 24.4859 148.335 24.4859H143.882C143.412 24.4859 143.031 24.8581 143.031 25.3171V37.7212C143.031 38.4275 142.444 39 141.721 39H140.674C139.95 39 139.364 38.4275 139.364 37.7212V25.7647C139.364 25.0585 138.777 24.4859 138.054 24.4859H134.06C133.337 24.4859 132.75 25.0585 132.75 25.7647V37.7212C132.75 38.4275 132.164 39 131.441 39H130.393C129.67 39 129.084 38.4275 129.084 37.7212V22.1841C129.084 21.4779 129.67 20.9054 130.393 20.9054H148.531ZM187.818 24.4859C187.095 24.4859 186.509 23.9134 186.509 23.2072V22.1841C186.509 21.4779 185.922 20.9054 185.199 20.9054H176.36C175.636 20.9054 175.05 21.4779 175.05 22.1841V37.7212C175.05 38.4275 175.636 39 176.36 39H177.407C178.13 39 178.717 38.4275 178.717 37.7212V25.7647C178.717 25.0585 179.303 24.4859 180.026 24.4859H185.068C185.792 24.4859 186.378 25.0585 186.378 25.7647V37.7212C186.378 38.4275 186.964 39 187.687 39H188.735C189.458 39 190.045 38.4275 190.045 37.7212V25.7647C190.045 25.0585 189.458 24.4859 188.735 24.4859H187.818ZM204.22 20.9054C204.943 20.9054 205.53 21.4779 205.53 22.1841V23.2072C205.53 23.9134 206.116 24.4859 206.839 24.4859H207.69C208.414 24.4859 209 25.0585 209 25.7647V30.4322C209 31.1385 208.414 31.711 207.69 31.711H198.654C197.931 31.711 197.345 32.2835 197.345 32.9898V34.1407C197.345 34.8469 197.931 35.4194 198.654 35.4194H207.69C208.414 35.4194 209 35.992 209 36.6982V37.7212C209 38.4275 208.414 39 207.69 39H198.392C197.669 39 197.083 38.4275 197.083 37.7212V36.6982C197.083 35.992 196.496 35.4194 195.773 35.4194H194.987C194.264 35.4194 193.678 34.8469 193.678 34.1407V22.1841C193.678 21.4779 194.264 20.9054 194.987 20.9054H204.22ZM205.333 26.8517C205.333 27.5579 204.747 28.1304 204.024 28.1304H198.654C197.931 28.1304 197.345 27.5579 197.345 26.8517V25.7647C197.345 25.0585 197.931 24.4859 198.654 24.4859H204.024C204.747 24.4859 205.333 25.0585 205.333 25.7647V26.8517ZM166.341 16.4297C166.341 17.1359 165.755 17.7084 165.032 17.7084H163.984C163.261 17.7084 162.674 17.1359 162.674 16.4297V15.3427C162.674 14.6365 163.261 14.0639 163.984 14.0639H165.032C165.755 14.0639 166.341 14.6365 166.341 15.3427V16.4297Z" fill="white"/>
</svg>
