<?xml version="1.0" encoding="utf-8"?>
<!-- Generator: Adobe Illustrator 24.1.3, SVG Export Plug-In . SVG Version: 6.00 Build 0)  -->
<svg version="1.1" id="Layer_1" xmlns="http://www.w3.org/2000/svg" xmlns:xlink="http://www.w3.org/1999/xlink" x="0px" y="0px"
	 width="349px" height="427px" viewBox="0 0 349 427" style="enable-background:new 0 0 349 427;" xml:space="preserve">
<style type="text/css">
	.st0{fill:none;stroke:#0188FF;stroke-width:2;stroke-linecap:round;stroke-miterlimit:10;}
	.st1{fill:#018BFF;}
	.st2{fill:none;stroke:#018BFF;stroke-width:2;}
	.st3{fill:#D1E6FD;}
	.st4{fill-rule:evenodd;clip-rule:evenodd;}
	.st5{fill-rule:evenodd;clip-rule:evenodd;fill:#018BFF;}
</style>
<g id="Layer_1_2_">
	<g id="Layer_1_1_">
		<path class="st0" d="M153.925,189.154c13.721-6.279,19.071-14.419,19.187-23.954V43.6819
			c0,19.3033-33.839,35.0018-75.5854,35.0018c-41.7463,0-75.5852-15.6985-75.5852-35.0018V165.2
			c0.2326,11.745,13.0239,22.094,32.4435,28.373l27.328,9"/>
		<path class="st0" d="M173.112,43.6819c0-19.3033-33.839-35.0017-75.5854-35.0017c-41.7463,0-75.5852,15.6984-75.5852,35.0017"/>
		<path class="st0" d="M29.6152,92.289c12.3262,11.629,38.1415,19.536,67.9104,19.536c29.7694,0,55.7004-8.024,67.9104-19.6522"/>
		<path class="st0" d="M30.082,150.897c12.4425,11.396,38.0252,19.187,67.4453,19.187c28.9547,0,54.0727-7.559,66.8637-18.606"/>
		<path class="st1" d="M169.613,169.08c0-0.552-0.447-1-1-1c-0.552,0-1,0.448-1,1H169.613z M167.613,413.32c0,0.552,0.448,1,1,1
			c0.553,0,1-0.448,1-1H167.613z M167.613,169.08v244.24h2V169.08H167.613z"/>
		<circle class="st1" cx="168.613" cy="417.82" r="4.5"/>
		<path class="st2" d="M149.819,177.407v229.146h-14.235"/>
		<circle class="st1" cx="132.859" cy="406.44" r="4.5"/>
		<path class="st2" d="M130.971,158.421v217.914h-16.889v10.476"/>
		<circle class="st1" cx="114.082" cy="390.311" r="4.5"/>
		<path class="st2" d="M111.586,158.421v204.394l-23.9102,0.382v9.826"/>
		<circle class="st1" cx="87.6758" cy="376.523" r="4.5"/>
		<path class="st2" d="M90.4066,192.573v154.766l-23.9105,0.353"/>
		<circle class="st1" cx="67.502" cy="347.692" r="4.5"/>
		<path class="st2" d="M69.5238,193.573v133.766l-23.9105,0.353"/>
		<circle class="st1" cx="46.6191" cy="327.692" r="4.5"/>
		<path class="st2" d="M187.524,177.407v229.146h14.236"/>
		<circle class="st1" cx="204.484" cy="406.44" r="4.5"/>
		<path class="st2" d="M206.372,158.421v217.914h16.89v10.476"/>
		<circle class="st1" cx="223.262" cy="390.311" r="4.5"/>
		<path class="st2" d="M225.757,158.421v204.394l23.911,0.382v9.826"/>
		<circle class="st1" cx="249.668" cy="376.523" r="4.5"/>
		<path class="st2" d="M246.937,158.421v188.918l23.911,0.353"/>
		<circle class="st1" cx="269.842" cy="347.692" r="4.5"/>
		<path class="st2" d="M267.82,138.421v188.918l23.91,0.353"/>
		<circle class="st1" cx="290.725" cy="327.692" r="4.5"/>
		<path class="st1" d="M251.762,180.431c-4.626-19.697-16.272-36.702-32.131-48.267v-16.016h-49.229
			c-42.648,0-77.8349,31.894-82.9285,73.074h-3.0562c-0.1651,0-0.3579,0-0.5231,0c-0.2753,0-0.5506,0-0.8259,0h-0.0551
			c-23.9811,0.439-43.5844,18.817-45.8696,42.278h-8.5077c-13.849,0.467-24.9172,11.785-24.9172,25.713
			c0,14.203,11.5363,25.741,25.7983,25.741c9.4713,0,203.44,0,215.747,0c28.496,0,51.596-23.049,51.596-51.482
			C296.805,205.292,277.174,183.645,251.762,180.431z"/>
		<path class="st3" d="M300.209,180.431c-8.673-36.839-41.795-64.256-81.359-64.256c-42.704,0-77.918,31.95-82.957,73.184
			c-1.183-0.082-2.367-0.137-3.579-0.137c-24.779,0-45.071,19.12-46.8331,43.404c-2.3954-0.714-4.9284-1.126-7.544-1.126
			c-14.2345,0-25.7982,11.51-25.7982,25.74c0,14.231,11.5362,25.741,25.7982,25.741c9.4713,0,203.4401,0,215.7471,0
			c28.496,0,51.596-23.048,51.596-51.481C345.253,205.292,325.622,183.645,300.209,180.431z"/>
	</g>
</g>
<g id="Layer_2_1_">
	<g id="Page-1">
		<g id="Artboard" transform="translate(-132.000000, -245.000000)">
			<g id="Group-17-Copy-39" transform="translate(132.000000, 245.000000)">
				<path id="Fill-1" class="st4" d="M152.0122,202.3983c-9.7175,0-16.24,5.6819-16.24,16.7126v7.8595
					c0.9545-0.4567,2.0183-0.7206,3.1445-0.7206c1.1391,0,2.2158,0.2704,3.1786,0.7382v-7.877
					c0-7.1536,3.9272-10.8305,9.9169-10.8305c5.9906,0,9.9169,3.6769,9.9169,10.8305v17.1795h6.3231V219.111
					C168.2522,208.0137,161.7297,202.3983,152.0122,202.3983"/>
				<path id="Fill-3" class="st4" d="M200.4266,216.3711c-1.2661-5.2567-5.5957-8.1174-10.9247-8.1174
					c-5.4633,0-9.5924,2.9268-10.8585,8.1174H200.4266z M171.7826,219.6974c0-9.9798,7.327-17.2991,17.7193-17.2991
					c10.3914,0,17.5851,7.3193,17.5851,17.2991v2.329h-28.6431c0.9323,5.8545,5.329,9.1147,11.058,9.1147
					c4.2625,0,7.2607-1.3307,9.1925-4.1905h6.9941c-2.5312,6.1209-8.5259,10.0459-16.1866,10.0459
					C179.1096,236.9965,171.7826,229.6781,171.7826,219.6974L171.7826,219.6974z"/>
				<path id="Fill-5" class="st4" d="M238.8452,219.6969c0-6.6537-4.5129-11.444-11.2818-11.444
					c-6.7688,0-11.2808,4.7903-11.2808,11.444s4.512,11.444,11.2808,11.444C234.3323,231.1409,238.8452,226.3506,238.8452,219.6969
					 M209.9113,219.6969c0-9.9801,7.3001-17.2987,17.6522-17.2987c10.3521,0,17.6522,7.3186,17.6522,17.2987
					c0,9.981-7.3001,17.2996-17.6522,17.2996C217.2114,236.9965,209.9113,229.6779,209.9113,219.6969"/>
				<path id="Fill-7" class="st4" d="M281.226,242.8561h0.735c4.0811,0,5.6194-1.7912,5.6194-6.4327v-32.613h6.3552v32.2148
					c0,8.0903-3.2104,12.2686-11.3726,12.2686h-1.337L281.226,242.8561L281.226,242.8561z"/>
				<path id="Fill-9" class="st4" d="M254.8082,223.8294c-0.184,0.262-0.2919,0.583-0.2919,0.9298
					c0,0.8846,0.6971,1.5985,1.5663,1.5985h0.0172h15.6082v-20.3802c-0.0027-1.0534-0.7551-1.4371-1.0859-1.5478
					c-0.1233-0.0406-0.3354-0.0793-0.5638-0.0793c-0.3807,0-0.8521,0.1356-1.2391,0.6687l-14.0074,18.8056L254.8082,223.8294z
					 M277.9464,239.8208h-6.2382v-7.8311h-15.8204c-3.1572,0-5.8965-1.5745-7.1501-4.1074
					c-1.1721-2.3715-0.8539-5.1829,0.8521-7.523l14.2187-18.956c2.0477-2.8087,5.484-3.9211,8.7473-2.8262
					c3.266,1.093,5.3816,4.0594,5.3907,7.5571v20.2234h4.6918v5.6321h-4.6918v7.8311H277.9464z"/>
				<g id="Group-13" transform="translate(472.000000, 0.000000)">
					<g id="Clip-12">
					</g>
					<path id="Fill-11" class="st5" d="M-186.5374,195.6909c0,2.9195,2.3749,5.2952,5.2955,5.2952
						c2.9205,0,5.2964-2.3757,5.2964-5.2952c0-2.9204-2.3758-5.2961-5.2964-5.2961S-186.5374,192.7705-186.5374,195.6909z"/>
				</g>
				<g id="Group-16" transform="translate(0.000000, 80.000000)">
					<g id="Clip-15">
					</g>
					<path id="Fill-14" class="st5" d="M138.7934,148.4347c-1.2306,0-2.3632,0.4095-3.2765,1.0912l-5.9959-4.0469
						c0.1314-0.4643,0.2073-0.9514,0.2073-1.4568c0-2.9684-2.4455-5.384-5.4509-5.384c-3.0063,0-5.4518,2.4155-5.4518,5.384
						c0,2.9694,2.4455,5.384,5.4518,5.384c1.2306,0,2.3632-0.4085,3.2765-1.0903l5.9959,4.0469
						c-0.1323,0.4643-0.2073,0.9514-0.2073,1.4568c0,0.5045,0.075,0.9916,0.2073,1.4559l-5.9959,4.0469
						c-0.9133-0.6818-2.0458-1.0912-3.2765-1.0912c-3.0063,0-5.4518,2.4155-5.4518,5.3849s2.4455,5.384,5.4518,5.384
						c3.0053,0,5.4509-2.4146,5.4509-5.384c0-0.5054-0.0759-0.9925-0.2073-1.4559l5.9959-4.0478
						c0.9133,0.6818,2.0458,1.0912,3.2765,1.0912c3.0063,0,5.4518-2.4146,5.4518-5.384
						C144.2452,150.8502,141.7997,148.4347,138.7934,148.4347"/>
				</g>
			</g>
			<path id="aura" d="M301.8204,508.4992c2.7877,0,5.1689-1.3648,6.1852-3.9202v3.5427h1.8004v-7.0854
				c0-4.5301-3.1652-7.6372-7.6953-7.6372s-7.7243,3.1652-7.7243,7.6372C294.3865,505.6244,297.784,508.4992,301.8204,508.4992z
				 M302.1108,506.6988c-3.4266,0-5.7497-2.4393-5.7497-5.7497s2.3231-5.7497,5.7497-5.7497s5.7497,2.4393,5.7497,5.7497
				S305.5374,506.6988,302.1108,506.6988z M324.1162,508.4992c4.2397,0,7.0854-2.4683,7.0854-7.2307v-7.492h-1.9456v7.492
				c0,3.5137-2.0327,5.4303-5.1399,5.4303s-5.1399-1.9166-5.1399-5.4303v-7.492h-1.9456v7.492
				C317.0308,506.0309,319.8766,508.4992,324.1162,508.4992z M340.372,508.1217v-8.5955c0-2.991,1.6262-4.3268,4.0945-4.3268
				c2.4393,0,4.0945,1.3358,4.0945,4.3268v0.2033h1.9166v-0.1742c0-4.1526-2.4393-6.1562-6.011-6.1562s-6.0401,2.0037-6.0401,6.1272
				v8.5955h1.9455V508.1217z M363.6261,508.4992c2.7877,0,5.1689-1.3648,6.1853-3.9202v3.5427h1.8004v-7.0854
				c0-4.5301-3.1652-7.6372-7.6953-7.6372s-7.7243,3.1652-7.7243,7.6372C356.1921,505.6244,359.5897,508.4992,363.6261,508.4992z
				 M363.9164,506.6988c-3.4266,0-5.7497-2.4393-5.7497-5.7497s2.3231-5.7497,5.7497-5.7497s5.7497,2.4393,5.7497,5.7497
				S367.343,506.6988,363.9164,506.6988z"/>
			<path id="D" class="st1" d="M384.0683,508.1217c5.1452,0,7.8999-2.9824,7.8999-7.4446s-2.7547-7.4446-7.8999-7.4446h-5.3273
				v14.8892L384.0683,508.1217L384.0683,508.1217z M384.0683,506.6191h-3.6881V494.735h3.6881c4.2118,0,6.2608,2.3677,6.2608,5.942
				C390.3291,504.2514,388.2801,506.6191,384.0683,506.6191z"/>
			<path id="B" class="st1" d="M405.9445,508.1217c2.7547,0,4.2801-1.6619,4.2801-3.9386c0-1.8441-1.07-3.3011-2.8231-3.7565
				v-0.0455c1.3432-0.5692,2.14-1.7986,2.14-3.3694c0-2.2083-1.4798-3.7792-4.189-3.7792h-7.1942v14.8892H405.9445z
				 M405.2387,499.7892h-5.4412v-5.0541h5.3729c1.9124,0,2.732,1.0473,2.732,2.5271
				C407.9024,498.7419,406.9462,499.7892,405.2387,499.7892z M405.7396,506.6191h-5.942v-5.3273h5.9876
				c1.7303,0,2.7775,1.1156,2.7775,2.6637C408.5626,505.5036,407.652,506.6191,405.7396,506.6191z"/>
		</g>
	</g>
</g>
</svg>
